<svg width="181" height="33" viewBox="0 0 181 33" fill="none" xmlns="http://www.w3.org/2000/svg">
<g clip-path="url(#clip0_366_1362)">
<path d="M20.9144 23.1419L25.0854 20.7782L20.7254 13.6343L12.4307 18.3341L20.9144 23.1419Z" fill="#15D47D"/>
<path d="M25.3352 26.5881V26.5565C25.3352 25.9122 24.9843 25.3167 24.4133 24.9926L0.712891 11.5625V21.1769L15.4855 29.5487V32.3394H25.3352V26.5868V26.5881Z" fill="url(#paint0_linear_366_1362)"/>
<path d="M0.461914 5.75254V5.78416C0.461914 6.42845 0.812871 7.024 1.38385 7.34812L25.0842 20.7795V11.1651L10.3117 2.79063V0H0.461914V5.75254Z" fill="url(#paint1_linear_366_1362)"/>
<path d="M49.1672 20.4649C49.8561 19.4061 50.2012 18.1253 50.2012 16.6211C50.2012 15.1169 49.8657 13.782 49.1976 12.7315C48.5281 11.6824 47.6073 10.8915 46.4367 10.3572C45.2647 9.82299 43.9216 9.55518 42.4058 9.55518H33.9893V31.6715H38.5668V23.6565H41.815L46.2738 31.6715H51.4118L46.3912 22.8544C47.5521 22.3202 48.4784 21.5237 49.1672 20.4649ZM45.2247 18.1933C44.9583 18.6484 44.5897 19.0051 44.1176 19.2618C43.6455 19.5199 43.0836 19.6476 42.4348 19.6476H38.5668V13.5613H42.4348C43.085 13.5613 43.6455 13.6904 44.1176 13.9471C44.5897 14.2052 44.9596 14.5604 45.2247 15.0156C45.4911 15.4707 45.6236 16.005 45.6236 16.6183C45.6236 17.2317 45.4911 17.7368 45.2247 18.1919V18.1933Z" fill="#23262F"/>
<path d="M65.8381 17.4219C65.1589 16.6907 64.3265 16.1203 63.3422 15.7151C62.358 15.3099 61.226 15.106 59.9464 15.106C58.4113 15.106 57.0322 15.4723 55.8119 16.205C54.5916 16.9377 53.6212 17.9368 52.9033 19.2037C52.1841 20.4706 51.8252 21.9152 51.8252 23.5373C51.8252 25.1595 52.1689 26.5263 52.8591 27.8127C53.548 29.099 54.5226 30.1231 55.7829 30.8849C57.0433 31.6467 58.53 32.0284 60.2418 32.0284C61.3447 32.0284 62.358 31.8646 63.2829 31.5385C64.2078 31.2124 65.0098 30.7517 65.6904 30.1578C66.3696 29.5639 66.8665 28.8714 67.1813 28.0791L63.6377 26.3876C63.3229 26.9412 62.8839 27.3769 62.3235 27.6933C61.763 28.0097 61.088 28.1679 60.3011 28.1679C59.4342 28.1679 58.6957 27.975 58.0869 27.5893C57.4767 27.2035 57.0239 26.6637 56.7285 25.9713C56.5767 25.6146 56.4745 25.2275 56.4221 24.814H67.7141C67.7928 24.5961 67.8466 24.3338 67.877 24.0272C67.906 23.7205 67.9212 23.4083 67.9212 23.0919C67.9212 21.9637 67.7445 20.9202 67.3897 19.96C67.0349 18.9997 66.5186 18.1546 65.8395 17.4219H65.8381ZM57.9668 19.2328C58.5176 18.8568 59.1774 18.6694 59.945 18.6694C60.7125 18.6694 61.3972 18.8623 61.9383 19.2481C62.4795 19.6339 62.8591 20.1584 63.0758 20.8217C63.1517 21.052 63.2001 21.2949 63.2249 21.5488H56.5353C56.5863 21.3199 56.6485 21.1006 56.7258 20.8952C57.0019 20.1639 57.4146 19.6089 57.9668 19.2328Z" fill="#23262F"/>
<path d="M78.8177 9.19865C77.4787 9.19865 76.3371 9.43594 75.3915 9.91052C74.4459 10.3851 73.7225 11.0678 73.2214 11.9587C72.7203 12.8496 72.4677 13.9375 72.4677 15.2238V15.4611H69.751V19.3202H72.4677V31.6703H76.8975V19.3202H80.3528V15.4611H76.8975V15.2238C76.8975 14.512 77.1087 13.9722 77.5325 13.6058C77.9563 13.2395 78.5803 13.0563 79.4072 13.0563C79.5646 13.0563 79.7178 13.0619 79.8655 13.0716C80.0132 13.0813 80.1858 13.1063 80.3818 13.1451V9.34574C80.1844 9.30689 79.9387 9.27081 79.6432 9.24167C79.3478 9.21253 79.0717 9.19727 78.8163 9.19727L78.8177 9.19865Z" fill="#23262F"/>
<path d="M95.6945 17.4219C95.0154 16.6907 94.1829 16.1203 93.1987 15.7151C92.2144 15.3099 91.0825 15.106 89.8028 15.106C88.2677 15.106 86.8887 15.4723 85.6684 16.205C84.4481 16.9377 83.4776 17.9368 82.7598 19.2037C82.0406 20.4706 81.6816 21.9152 81.6816 23.5373C81.6816 25.1595 82.0254 26.5263 82.7156 27.8127C83.4044 29.099 84.379 30.1231 85.6394 30.8849C86.8997 31.6467 88.3865 32.0284 90.0982 32.0284C91.2012 32.0284 92.2144 31.8646 93.1393 31.5385C94.0642 31.2124 94.8663 30.7517 95.5468 30.1578C96.226 29.5639 96.723 28.8714 97.0377 28.0791L93.4941 26.3876C93.1794 26.9412 92.7404 27.3769 92.1799 27.6933C91.6195 28.0097 90.9444 28.1679 90.1576 28.1679C89.2907 28.1679 88.5521 27.975 87.9433 27.5893C87.3332 27.2035 86.8804 26.6637 86.585 25.9713C86.4331 25.6146 86.331 25.2275 86.2785 24.814H97.5705C97.6492 24.5961 97.7031 24.3338 97.7334 24.0272C97.7624 23.7205 97.7776 23.4083 97.7776 23.0919C97.7776 21.9637 97.6009 20.9202 97.2461 19.96C96.8914 18.9997 96.3751 18.1546 95.6959 17.4219H95.6945ZM87.8246 19.2328C88.3754 18.8568 89.0353 18.6694 89.8028 18.6694C90.5703 18.6694 91.255 18.8623 91.7962 19.2481C92.3373 19.6339 92.7169 20.1584 92.9336 20.8217C93.0096 21.052 93.0579 21.2949 93.0827 21.5488H86.3931C86.4442 21.3199 86.5063 21.1006 86.5836 20.8952C86.8597 20.1639 87.2724 19.6089 87.8246 19.2328Z" fill="#23262F"/>
<path d="M105.972 16.0122C105.351 16.3813 104.864 17.0044 104.51 17.8814V15.4627H100.376V31.6718H104.806V22.9435C104.806 21.7363 105.14 20.801 105.809 20.1377C106.479 19.4744 107.356 19.1427 108.438 19.1427H109.825V15.2837H108.88C107.757 15.2837 106.787 15.5265 105.971 16.0108L105.972 16.0122Z" fill="#23262F"/>
<path d="M125.138 17.4219C124.459 16.6907 123.626 16.1203 122.642 15.7151C121.658 15.3099 120.526 15.106 119.246 15.106C117.711 15.106 116.332 15.4723 115.112 16.205C113.891 16.9377 112.921 17.9368 112.203 19.2037C111.484 20.4706 111.125 21.9152 111.125 23.5373C111.125 25.1595 111.469 26.5263 112.159 27.8127C112.848 29.099 113.822 30.1231 115.083 30.8849C116.343 31.6467 117.83 32.0284 119.542 32.0284C120.643 32.0284 121.658 31.8646 122.583 31.5385C123.508 31.2124 124.31 30.7517 124.989 30.1578C125.668 29.5639 126.165 28.8714 126.48 28.0791L122.936 26.3876C122.621 26.9412 122.182 27.3769 121.622 27.6933C121.06 28.0097 120.386 28.1679 119.6 28.1679C118.733 28.1679 117.994 27.975 117.385 27.5893C116.775 27.2035 116.322 26.6637 116.027 25.9713C115.875 25.6146 115.773 25.2275 115.721 24.814H127.013C127.091 24.5961 127.145 24.3338 127.175 24.0272C127.204 23.7205 127.22 23.4083 127.22 23.0919C127.22 21.9637 127.043 20.9202 126.688 19.96C126.333 18.9997 125.817 18.1546 125.138 17.4219ZM117.267 19.2328C117.817 18.8568 118.477 18.6694 119.245 18.6694C120.012 18.6694 120.697 18.8623 121.238 19.2481C121.779 19.6339 122.158 20.1584 122.376 20.8217C122.452 21.052 122.5 21.2949 122.525 21.5488H115.835C115.886 21.3199 115.948 21.1006 116.026 20.8952C116.302 20.1639 116.714 19.6089 117.267 19.2328Z" fill="#23262F"/>
<path d="M141.676 15.8787C140.761 15.3639 139.693 15.1072 138.472 15.1072C137.35 15.1072 136.37 15.3403 135.533 15.8052C134.853 16.184 134.328 16.7321 133.953 17.444V15.4638H129.818V31.6729H134.248V22.2036C134.248 21.5709 134.371 21.0269 134.617 20.5704C134.863 20.1152 135.212 19.7586 135.665 19.5019C136.117 19.2451 136.629 19.1161 137.2 19.1161C137.77 19.1161 138.307 19.2451 138.75 19.5019C139.193 19.76 139.537 20.1152 139.784 20.5704C140.03 21.0255 140.152 21.5695 140.152 22.2036V31.6729H144.582V21.2531C144.582 20.0264 144.327 18.9524 143.815 18.0323C143.303 17.1123 142.589 16.3949 141.674 15.8801L141.676 15.8787Z" fill="#23262F"/>
<path d="M153.37 19.6784C153.97 19.3024 154.655 19.115 155.423 19.115C156.288 19.115 157.052 19.3523 157.711 19.8269C158.371 20.3015 158.838 20.9453 159.114 21.7571L162.953 20.0947C162.638 19.0859 162.116 18.2103 161.388 17.4679C160.659 16.7255 159.783 16.1468 158.759 15.7319C157.735 15.3156 156.622 15.1089 155.423 15.1089C153.808 15.1089 152.351 15.4752 151.052 16.2079C149.753 16.9406 148.729 17.9439 147.981 19.2205C147.232 20.4971 146.858 21.9361 146.858 23.5402C146.858 25.1444 147.237 26.5875 147.996 27.8739C148.754 29.1602 149.778 30.1746 151.067 30.917C152.357 31.6594 153.809 32.0299 155.423 32.0299C156.643 32.0299 157.765 31.8176 158.79 31.3916C159.812 30.9656 160.689 30.3772 161.418 29.6251C162.145 28.873 162.658 28.0224 162.953 27.0718L159.114 25.3803C158.838 26.192 158.375 26.8345 157.727 27.3105C157.076 27.7851 156.309 28.0224 155.423 28.0224C154.655 28.0224 153.97 27.835 153.37 27.459C152.769 27.0829 152.296 26.5584 151.952 25.8854C151.607 25.2124 151.436 24.4408 151.436 23.5694C151.436 22.6979 151.609 21.9264 151.952 21.2534C152.296 20.5804 152.769 20.0559 153.37 19.6798V19.6784Z" fill="#23262F"/>
<path d="M180.465 19.96C180.11 18.9997 179.593 18.1546 178.914 17.4219C178.235 16.6907 177.403 16.1203 176.418 15.7151C175.434 15.3099 174.302 15.106 173.023 15.106C171.487 15.106 170.108 15.4723 168.888 16.205C167.668 16.9377 166.697 17.9368 165.98 19.2037C165.26 20.4706 164.901 21.9152 164.901 23.5373C164.901 25.1595 165.245 26.5263 165.935 27.8127C166.624 29.099 167.599 30.1231 168.859 30.8849C170.118 31.6467 171.606 32.0284 173.318 32.0284C174.421 32.0284 175.434 31.8646 176.36 31.5385C177.285 31.2124 178.087 30.7517 178.768 30.1578C179.447 29.5639 179.944 28.8714 180.259 28.0791L176.715 26.3876C176.4 26.9412 175.962 27.3769 175.401 27.6933C174.841 28.0097 174.166 28.1679 173.379 28.1679C172.512 28.1679 171.775 27.975 171.164 27.5893C170.554 27.2035 170.102 26.6637 169.806 25.9713C169.654 25.6146 169.552 25.2275 169.5 24.814H180.792C180.87 24.5961 180.924 24.3338 180.955 24.0272C180.984 23.7205 180.999 23.4083 180.999 23.0919C180.999 21.9637 180.822 20.9202 180.467 19.96H180.465ZM171.044 19.2328C171.595 18.8568 172.255 18.6694 173.023 18.6694C173.79 18.6694 174.475 18.8623 175.016 19.2481C175.557 19.6339 175.937 20.1584 176.153 20.8217C176.229 21.052 176.278 21.2949 176.302 21.5488H169.613C169.664 21.3199 169.726 21.1006 169.803 20.8952C170.079 20.1639 170.492 19.6089 171.043 19.2328H171.044Z" fill="#23262F"/>
</g>
<defs>
<linearGradient id="paint0_linear_366_1362" x1="3.61629" y1="14.5999" x2="19.1383" y2="28.6925" gradientUnits="userSpaceOnUse">
<stop stop-color="#84EBD7"/>
<stop offset="1" stop-color="#14E686"/>
</linearGradient>
<linearGradient id="paint1_linear_366_1362" x1="-3.03809" y1="1" x2="13.9619" y2="13.5" gradientUnits="userSpaceOnUse">
<stop stop-color="#A1EDED"/>
<stop offset="1" stop-color="#15E687"/>
</linearGradient>
<clipPath id="clip0_366_1362">
<rect width="180.538" height="32.3394" fill="white" transform="translate(0.461914)"/>
</clipPath>
</defs>
</svg>
