<svg width="181" height="33" viewBox="0 0 181 33" fill="none" xmlns="http://www.w3.org/2000/svg">
<path d="M20.4525 23.1419L24.6234 20.7782L20.2635 13.6343L11.9688 18.3341L20.4525 23.1419Z" fill="#1AE88B"/>
<path d="M24.8733 26.5881V26.5565C24.8733 25.9122 24.5223 25.3167 23.9514 24.9926L0.250977 11.5625V21.1769L15.0236 29.5487V32.3394H24.8733V26.5868V26.5881Z" fill="url(#paint0_linear_366_1986)"/>
<path d="M0 5.75254V5.78416C0 6.42845 0.350957 7.024 0.921937 7.34812L24.6223 20.7795V11.1651L9.84974 2.79063V0H0V5.75254Z" fill="url(#paint1_linear_366_1986)"/>
<path d="M48.7053 20.4649C49.3942 19.4061 49.7393 18.1253 49.7393 16.6211C49.7393 15.1169 49.4038 13.782 48.7357 12.7315C48.0662 11.6824 47.1454 10.8915 45.9748 10.3572C44.8028 9.82299 43.4596 9.55518 41.9439 9.55518H33.5273V31.6715H38.1049V23.6565H41.3531L45.8119 31.6715H50.9499L45.9293 22.8544C47.0902 22.3202 48.0165 21.5237 48.7053 20.4649ZM44.7628 18.1933C44.4963 18.6484 44.1278 19.0051 43.6557 19.2618C43.1835 19.5199 42.6217 19.6476 41.9729 19.6476H38.1049V13.5613H41.9729C42.6231 13.5613 43.1835 13.6904 43.6557 13.9471C44.1278 14.2052 44.4977 14.5604 44.7628 15.0156C45.0292 15.4707 45.1617 16.005 45.1617 16.6183C45.1617 17.2317 45.0292 17.7368 44.7628 18.1919V18.1933Z" fill="#D0D3DC"/>
<path d="M65.3762 17.4219C64.697 16.6907 63.8646 16.1203 62.8803 15.7151C61.8961 15.3099 60.7641 15.106 59.4844 15.106C57.9494 15.106 56.5703 15.4723 55.35 16.205C54.1297 16.9377 53.1592 17.9368 52.4414 19.2037C51.7222 20.4706 51.3633 21.9152 51.3633 23.5373C51.3633 25.1595 51.707 26.5263 52.3972 27.8127C53.0861 29.099 54.0607 30.1231 55.321 30.8849C56.5814 31.6467 58.0681 32.0284 59.7798 32.0284C60.8828 32.0284 61.8961 31.8646 62.821 31.5385C63.7459 31.2124 64.5479 30.7517 65.2285 30.1578C65.9076 29.5639 66.4046 28.8714 66.7193 28.0791L63.1757 26.3876C62.861 26.9412 62.422 27.3769 61.8616 27.6933C61.3011 28.0097 60.6261 28.1679 59.8392 28.1679C58.9723 28.1679 58.2338 27.975 57.625 27.5893C57.0148 27.2035 56.562 26.6637 56.2666 25.9713C56.1148 25.6146 56.0126 25.2275 55.9602 24.814H67.2522C67.3309 24.5961 67.3847 24.3338 67.4151 24.0272C67.4441 23.7205 67.4593 23.4083 67.4593 23.0919C67.4593 21.9637 67.2826 20.9202 66.9278 19.96C66.573 18.9997 66.0567 18.1546 65.3775 17.4219H65.3762ZM57.5049 19.2328C58.0557 18.8568 58.7155 18.6694 59.4831 18.6694C60.2506 18.6694 60.9353 18.8623 61.4764 19.2481C62.0176 19.6339 62.3972 20.1584 62.6139 20.8217C62.6898 21.052 62.7381 21.2949 62.763 21.5488H56.0734C56.1244 21.3199 56.1866 21.1006 56.2639 20.8952C56.5399 20.1639 56.9527 19.6089 57.5049 19.2328Z" fill="#D0D3DC"/>
<path d="M78.3558 9.19865C77.0168 9.19865 75.8752 9.43594 74.9296 9.91052C73.984 10.3851 73.2606 11.0678 72.7595 11.9587C72.2584 12.8496 72.0058 13.9375 72.0058 15.2238V15.4611H69.2891V19.3202H72.0058V31.6703H76.4356V19.3202H79.8909V15.4611H76.4356V15.2238C76.4356 14.512 76.6468 13.9722 77.0706 13.6058C77.4944 13.2395 78.1184 13.0563 78.9453 13.0563C79.1026 13.0563 79.2559 13.0619 79.4036 13.0716C79.5513 13.0813 79.7238 13.1063 79.9199 13.1451V9.34574C79.7225 9.30689 79.4767 9.27081 79.1813 9.24167C78.8859 9.21253 78.6098 9.19727 78.3544 9.19727L78.3558 9.19865Z" fill="#D0D3DC"/>
<path d="M95.2326 17.4219C94.5534 16.6907 93.721 16.1203 92.7368 15.7151C91.7525 15.3099 90.6206 15.106 89.3409 15.106C87.8058 15.106 86.4268 15.4723 85.2064 16.205C83.9861 16.9377 83.0157 17.9368 82.2979 19.2037C81.5786 20.4706 81.2197 21.9152 81.2197 23.5373C81.2197 25.1595 81.5635 26.5263 82.2537 27.8127C82.9425 29.099 83.9171 30.1231 85.1775 30.8849C86.4378 31.6467 87.9245 32.0284 89.6363 32.0284C90.7393 32.0284 91.7525 31.8646 92.6774 31.5385C93.6023 31.2124 94.4043 30.7517 95.0849 30.1578C95.7641 29.5639 96.261 28.8714 96.5758 28.0791L93.0322 26.3876C92.7174 26.9412 92.2785 27.3769 91.718 27.6933C91.1575 28.0097 90.4825 28.1679 89.6957 28.1679C88.8287 28.1679 88.0902 27.975 87.4814 27.5893C86.8713 27.2035 86.4185 26.6637 86.1231 25.9713C85.9712 25.6146 85.8691 25.2275 85.8166 24.814H97.1086C97.1873 24.5961 97.2412 24.3338 97.2715 24.0272C97.3005 23.7205 97.3157 23.4083 97.3157 23.0919C97.3157 21.9637 97.139 20.9202 96.7842 19.96C96.4295 18.9997 95.9132 18.1546 95.234 17.4219H95.2326ZM87.3627 19.2328C87.9135 18.8568 88.5734 18.6694 89.3409 18.6694C90.1084 18.6694 90.7931 18.8623 91.3342 19.2481C91.8754 19.6339 92.255 20.1584 92.4717 20.8217C92.5477 21.052 92.596 21.2949 92.6208 21.5488H85.9312C85.9823 21.3199 86.0444 21.1006 86.1217 20.8952C86.3978 20.1639 86.8105 19.6089 87.3627 19.2328Z" fill="#D0D3DC"/>
<path d="M105.51 16.0122C104.889 16.3813 104.402 17.0044 104.048 17.8814V15.4627H99.9141V31.6718H104.344V22.9435C104.344 21.7363 104.678 20.801 105.347 20.1377C106.017 19.4744 106.894 19.1427 107.976 19.1427H109.363V15.2837H108.418C107.295 15.2837 106.325 15.5265 105.509 16.0108L105.51 16.0122Z" fill="#D0D3DC"/>
<path d="M124.676 17.4219C123.997 16.6907 123.164 16.1203 122.18 15.7151C121.196 15.3099 120.064 15.106 118.784 15.106C117.249 15.106 115.87 15.4723 114.65 16.205C113.429 16.9377 112.459 17.9368 111.741 19.2037C111.022 20.4706 110.663 21.9152 110.663 23.5373C110.663 25.1595 111.007 26.5263 111.697 27.8127C112.386 29.099 113.36 30.1231 114.621 30.8849C115.881 31.6467 117.368 32.0284 119.08 32.0284C120.181 32.0284 121.196 31.8646 122.121 31.5385C123.046 31.2124 123.848 30.7517 124.527 30.1578C125.206 29.5639 125.703 28.8714 126.018 28.0791L122.474 26.3876C122.159 26.9412 121.72 27.3769 121.16 27.6933C120.598 28.0097 119.924 28.1679 119.138 28.1679C118.271 28.1679 117.532 27.975 116.923 27.5893C116.313 27.2035 115.86 26.6637 115.565 25.9713C115.413 25.6146 115.311 25.2275 115.259 24.814H126.551C126.629 24.5961 126.683 24.3338 126.714 24.0272C126.743 23.7205 126.758 23.4083 126.758 23.0919C126.758 21.9637 126.581 20.9202 126.226 19.96C125.871 18.9997 125.355 18.1546 124.676 17.4219ZM116.805 19.2328C117.355 18.8568 118.015 18.6694 118.783 18.6694C119.55 18.6694 120.235 18.8623 120.776 19.2481C121.317 19.6339 121.696 20.1584 121.914 20.8217C121.99 21.052 122.038 21.2949 122.063 21.5488H115.373C115.424 21.3199 115.486 21.1006 115.564 20.8952C115.84 20.1639 116.253 19.6089 116.805 19.2328Z" fill="#D0D3DC"/>
<path d="M141.214 15.8787C140.299 15.3639 139.231 15.1072 138.01 15.1072C136.888 15.1072 135.908 15.3403 135.071 15.8052C134.391 16.184 133.866 16.7321 133.491 17.444V15.4638H129.356V31.6729H133.786V22.2036C133.786 21.5709 133.909 21.0269 134.155 20.5704C134.401 20.1152 134.75 19.7586 135.203 19.5019C135.655 19.2451 136.168 19.1161 136.738 19.1161C137.308 19.1161 137.845 19.2451 138.288 19.5019C138.731 19.76 139.075 20.1152 139.322 20.5704C139.568 21.0255 139.69 21.5695 139.69 22.2036V31.6729H144.12V21.2531C144.12 20.0264 143.865 18.9524 143.353 18.0323C142.841 17.1123 142.127 16.3949 141.212 15.8801L141.214 15.8787Z" fill="#D0D3DC"/>
<path d="M152.908 19.6784C153.509 19.3024 154.193 19.115 154.961 19.115C155.826 19.115 156.59 19.3523 157.25 19.8269C157.909 20.3015 158.376 20.9453 158.652 21.7571L162.491 20.0947C162.176 19.0859 161.655 18.2103 160.926 17.4679C160.197 16.7255 159.322 16.1468 158.297 15.7319C157.273 15.3156 156.16 15.1089 154.961 15.1089C153.346 15.1089 151.889 15.4752 150.59 16.2079C149.291 16.9406 148.267 17.9439 147.519 19.2205C146.771 20.4971 146.396 21.9361 146.396 23.5402C146.396 25.1444 146.775 26.5875 147.534 27.8739C148.292 29.1602 149.316 30.1746 150.605 30.917C151.895 31.6594 153.347 32.0299 154.961 32.0299C156.181 32.0299 157.303 31.8176 158.328 31.3916C159.351 30.9656 160.227 30.3772 160.956 29.6251C161.684 28.873 162.196 28.0224 162.491 27.0718L158.652 25.3803C158.376 26.192 157.914 26.8345 157.265 27.3105C156.615 27.7851 155.847 28.0224 154.961 28.0224C154.193 28.0224 153.509 27.835 152.908 27.459C152.308 27.0829 151.834 26.5584 151.49 25.8854C151.145 25.2124 150.974 24.4408 150.974 23.5694C150.974 22.6979 151.147 21.9264 151.49 21.2534C151.834 20.5804 152.308 20.0559 152.908 19.6798V19.6784Z" fill="#D0D3DC"/>
<path d="M180.003 19.96C179.648 18.9997 179.132 18.1546 178.452 17.4219C177.773 16.6907 176.941 16.1203 175.957 15.7151C174.972 15.3099 173.84 15.106 172.561 15.106C171.026 15.106 169.646 15.4723 168.426 16.205C167.206 16.9377 166.235 17.9368 165.518 19.2037C164.798 20.4706 164.439 21.9152 164.439 23.5373C164.439 25.1595 164.783 26.5263 165.473 27.8127C166.162 29.099 167.137 30.1231 168.397 30.8849C169.656 31.6467 171.144 32.0284 172.856 32.0284C173.959 32.0284 174.972 31.8646 175.899 31.5385C176.823 31.2124 177.625 30.7517 178.306 30.1578C178.985 29.5639 179.482 28.8714 179.797 28.0791L176.253 26.3876C175.939 26.9412 175.5 27.3769 174.939 27.6933C174.379 28.0097 173.704 28.1679 172.917 28.1679C172.05 28.1679 171.313 27.975 170.703 27.5893C170.092 27.2035 169.64 26.6637 169.344 25.9713C169.192 25.6146 169.09 25.2275 169.038 24.814H180.33C180.408 24.5961 180.462 24.3338 180.493 24.0272C180.522 23.7205 180.537 23.4083 180.537 23.0919C180.537 21.9637 180.36 20.9202 180.005 19.96H180.003ZM170.582 19.2328C171.133 18.8568 171.793 18.6694 172.561 18.6694C173.328 18.6694 174.013 18.8623 174.554 19.2481C175.095 19.6339 175.475 20.1584 175.691 20.8217C175.767 21.052 175.816 21.2949 175.841 21.5488H169.151C169.202 21.3199 169.264 21.1006 169.341 20.8952C169.618 20.1639 170.03 19.6089 170.581 19.2328H170.582Z" fill="#D0D3DC"/>
<defs>
<linearGradient id="paint0_linear_366_1986" x1="3.15437" y1="14.5999" x2="18.6764" y2="28.6925" gradientUnits="userSpaceOnUse">
<stop stop-color="#84EBD7"/>
<stop offset="1" stop-color="#14E686"/>
</linearGradient>
<linearGradient id="paint1_linear_366_1986" x1="-3.5" y1="1" x2="13.5" y2="13.5" gradientUnits="userSpaceOnUse">
<stop stop-color="#A1EDED"/>
<stop offset="1" stop-color="#15E687"/>
</linearGradient>
</defs>
</svg>
