<?xml version="1.0" encoding="UTF-8" standalone="no" ?>
<!DOCTYPE svg PUBLIC "-//W3C//DTD SVG 1.1//EN" "http://www.w3.org/Graphics/SVG/1.1/DTD/svg11.dtd">
<svg xmlns="http://www.w3.org/2000/svg" xmlns:xlink="http://www.w3.org/1999/xlink" version="1.1" width="1080" height="1080" viewBox="0 0 1080 1080" xml:space="preserve">
<desc>Created with Fabric.js 5.2.4</desc>
<defs>
</defs>
<g transform="matrix(1 0 0 1 540 540)" id="092b7d9e-f852-423f-8023-e036b64e8a10"  >
<rect style="stroke: none; stroke-width: 1; stroke-dasharray: none; stroke-linecap: butt; stroke-dashoffset: 0; stroke-linejoin: miter; stroke-miterlimit: 4; fill: rgb(255,255,255); fill-rule: nonzero; opacity: 1; visibility: hidden;" vector-effect="non-scaling-stroke"  x="-540" y="-540" rx="0" ry="0" width="1080" height="1080" />
</g>
<g transform="matrix(1 0 0 1 540 540)" id="7855123e-cd99-4c74-a27e-0014a273f9da"  >
</g>
<g transform="matrix(33.33 0 0 33.33 548.75 615.42)"  >
<path style="stroke: rgb(255,255,255); stroke-width: 19; stroke-dasharray: none; stroke-linecap: butt; stroke-dashoffset: 0; stroke-linejoin: miter; stroke-miterlimit: 4; fill: rgb(255,255,255); fill-opacity: 0; fill-rule: nonzero; opacity: 1;" vector-effect="non-scaling-stroke"  transform=" translate(-12, -14)" d="M 2 14 C 2 10.2288 2 8.34315 3.17157 7.17157 C 4.34315 6 6.22876 6 10 6 L 14 6 C 17.7712 6 19.6569 6 20.8284 7.17157 C 22 8.34315 22 10.2288 22 14 C 22 17.7712 22 19.6569 20.8284 20.8284 C 19.6569 22 17.7712 22 14 22 L 10 22 C 6.22876 22 4.34315 22 3.17157 20.8284 C 2 19.6569 2 17.7712 2 14 Z" stroke-linecap="round" />
</g>
<g transform="matrix(33.33 0 0 33.33 549.25 282.58)"  >
<path style="stroke: rgb(255,255,255); stroke-width: 20; stroke-dasharray: none; stroke-linecap: butt; stroke-dashoffset: 0; stroke-linejoin: miter; stroke-miterlimit: 4; fill: rgb(255,255,255); fill-opacity: 0; fill-rule: nonzero; opacity: 1;" vector-effect="non-scaling-stroke"  transform=" translate(-12, -4)" d="M 16 6 C 16 4.11438 16 3.17157 15.4142 2.58579 C 14.8284 2 13.8856 2 12 2 C 10.1144 2 9.17157 2 8.58579 2.58579 C 8 3.17157 8 4.11438 8 6" stroke-linecap="round" />
</g>
<g transform="matrix(33.33 0 0 33.33 549.75 616.42)"  >
<path style="stroke: rgb(255,255,255); stroke-width: 21; stroke-dasharray: none; stroke-linecap: round; stroke-dashoffset: 0; stroke-linejoin: miter; stroke-miterlimit: 4; fill: rgb(255,255,255); fill-opacity: 0; fill-rule: nonzero; opacity: 1;" vector-effect="non-scaling-stroke"  transform=" translate(-12, -14)" d="M 12 17.3333 C 13.1046 17.3333 14 16.5871 14 15.6667 C 14 14.7462 13.1046 14 12 14 C 10.8954 14 10 13.2538 10 12.3333 C 10 11.4129 10.8954 10.6667 12 10.6667 M 12 17.3333 C 10.8954 17.3333 10 16.5871 10 15.6667 M 12 17.3333 L 12 18 M 12 10 L 12 10.6667 M 12 10.6667 C 13.1046 10.6667 14 11.4129 14 12.3333" stroke-linecap="round" />
</g>
</svg>