<?xml version="1.0" encoding="UTF-8" standalone="no" ?>
<!DOCTYPE svg PUBLIC "-//W3C//DTD SVG 1.1//EN" "http://www.w3.org/Graphics/SVG/1.1/DTD/svg11.dtd">
<svg xmlns="http://www.w3.org/2000/svg" xmlns:xlink="http://www.w3.org/1999/xlink" version="1.1" width="1080" height="1080" viewBox="0 0 1080 1080" xml:space="preserve">
<desc>Created with Fabric.js 5.2.4</desc>
<defs>
</defs>
<g transform="matrix(1 0 0 1 540 540)" id="65ef537a-c70f-48a0-aea9-99f78607d9cd"  >
<rect style="stroke: none; stroke-width: 1; stroke-dasharray: none; stroke-linecap: butt; stroke-dashoffset: 0; stroke-linejoin: miter; stroke-miterlimit: 4; fill: rgb(255,255,255); fill-rule: nonzero; opacity: 1; visibility: hidden;" vector-effect="non-scaling-stroke"  x="-540" y="-540" rx="0" ry="0" width="1080" height="1080" />
</g>
<g transform="matrix(1 0 0 1 540 540)" id="a5558d9f-bd23-43df-9b0b-923a7f819676"  >
</g>
<g transform="matrix(1 0 0 1 540 540)"  >
<g style="" vector-effect="non-scaling-stroke"   >
		<g transform="matrix(12.5 0 0 12.5 0 0)"  >
<path style="stroke: none; stroke-width: 1; stroke-dasharray: none; stroke-linecap: butt; stroke-dashoffset: 0; stroke-linejoin: miter; stroke-miterlimit: 4; fill: rgb(255,255,255); fill-rule: nonzero; opacity: 1;" vector-effect="non-scaling-stroke"  transform=" translate(-32, -32)" d="M 63.9999542 8.8992481 C 63.9999542 6.114048499999999 63.205955499999995 3.909948299999999 61.6405563 2.3494481999999994 C 55.3563538 -3.9113514 38.8339539 2.7459486 24.019455 17.5105476 C 23.481155400000002 18.0471477 22.9891568 18.619148199999998 22.5160561 19.205348899999997 C 22.360756 19.141147499999995 22.1820565 19.083747799999998 21.9765568 19.035947699999998 C 17.7099552 18.038848799999997 4.016555800000003 20.3650493 0.030256300000001346 36.2908477 C -0.07233239999999866 36.699047 0.09175630000000135 37.1267471 0.44035630000000137 37.3621482 C 0.6093563000000014 37.4773482 0.8046676000000014 37.5339469 0.9999563000000014 37.5339469 C 1.2059563000000013 37.5339469 1.4120563000000015 37.4705466 1.5868563000000013 37.343547699999995 C 6.9974560000000015 33.418746799999994 11.338056000000002 31.840148799999994 15.1271567 32.42124929999999 C 14.8656678 32.89534749999999 14.600256400000001 33.35774979999999 14.3261561 33.79964819999999 C 14.0809569 34.195148399999994 14.1405568 34.706848099999995 14.469667900000001 35.03495019999999 L 16.0387559 36.59894939999999 L 13.101556300000002 39.525249399999986 C 12.913056800000001 39.712749399999986 12.807556600000002 39.96754829999998 12.807556600000002 40.233249599999986 C 12.807556600000002 40.49884789999999 12.913056800000001 40.75374979999999 13.101556300000002 40.94124979999999 L 22.930668400000002 50.73804849999999 C 23.125956100000003 50.93244929999999 23.3807569 51.03004829999999 23.6366678 51.03004829999999 C 23.8925558 51.03004829999999 24.147455800000003 50.93244929999999 24.3427568 50.73804849999999 L 27.283856 47.80644979999999 L 28.8573557 49.37484729999999 C 29.050757 49.56714999999999 29.3056685 49.66684709999999 29.5634562 49.66684709999999 C 29.7440554 49.66684709999999 29.925757100000002 49.61794649999999 30.087856900000002 49.51834859999999 C 30.5011565 49.26344669999999 30.9301554 49.015849999999986 31.3715559 48.77224719999999 C 32.022457700000004 52.580146699999986 30.445755600000002 56.948348899999985 26.4579569 62.40995009999999 C 26.2099558 62.74984729999999 26.2011572 63.20874769999999 26.4354559 63.557449199999986 C 26.6239554 63.83864959999999 26.937456700000002 63.999847299999985 27.2655569 63.999847299999985 C 27.3456674 63.999847299999985 27.4266687 63.990047299999986 27.5067564 63.970546599999984 C 43.447254799999996 60.00664889999999 45.8026701 46.36114869999999 44.8202559 42.10524739999998 C 44.7601553 41.845546599999984 44.6815573 41.64104829999998 44.5963561 41.45974719999998 C 45.2318541 40.95754989999998 45.851055800000005 40.43294899999998 46.4296691 39.85624679999998 C 57.1034546 29.2185478 63.9999542 17.0662479 63.9999542 8.8992481 z M 16.0575562 30.5486488 C 12.156156600000001 29.7263488 7.8690567 30.8699493 2.7782565000000012 34.111148799999995 C 5.282156600000001 27.162948599999996 9.842756400000003 23.880647599999996 13.4208566 22.334749199999997 C 16.1034566 21.176547999999997 18.5448552 20.852348299999996 20.1073552 20.852348299999996 C 20.5263558 20.852348299999996 20.8807565 20.875747699999994 21.161056600000002 20.911949099999994 L 16.0575562 30.5486488 z M 23.6366673 48.6179466 L 15.224556 40.23324960000001 L 17.455055299999998 38.01154700000001 L 24.7225552 45.25384890000001 L 25.867155099999998 46.39434800000001 L 23.6366673 48.6179466 z M 41.5331535 50.5730476 C 39.9862556 54.1560478 36.6913566 58.721447000000005 29.696254699999997 61.2244491 C 32.9423561 56.155048300000004 34.089755999999994 51.8855476 33.2665558 47.9949493 L 42.9403534 42.905048300000004 C 43.1141548 44.2195473 42.9872551 47.203949 41.5331535 50.5730476 z M 34.6893539 44.8650475 C 32.9306678 45.7117501 31.2557563 46.516449 29.7186679 47.408947000000005 L 16.4364567 34.1716499 C 17.1537552 32.9434471 17.8168564 31.6095485 18.4884567 30.2317485 L 22.5492553 22.564647599999997 C 23.3991565 21.249048199999997 24.3407554 20.013948399999997 25.4315547 18.926547899999996 C 38.9843559 5.4187484 54.916954 -1.5236515 60.2284546 3.7654486 C 61.4042549 4.9373484 61.9999542 6.6648484 61.9999542 8.899248199999999 C 61.9999542 16.444149099999997 55.1747551 28.316247999999998 45.0175552 38.4402505 C 42.1884537 41.2595482 38.3759537 43.0925484 34.6893539 44.8650475 z" stroke-linecap="round" />
</g>
		<g transform="matrix(12.5 0 0 12.5 187.3 -186.22)"  >
<path style="stroke: none; stroke-width: 1; stroke-dasharray: none; stroke-linecap: butt; stroke-dashoffset: 0; stroke-linejoin: miter; stroke-miterlimit: 4; fill: rgb(255,255,255); fill-rule: nonzero; opacity: 1;" vector-effect="non-scaling-stroke"  transform=" translate(-46.98, -17.1)" d="M 42.724556 12.8533487 C 41.5849572 13.9871483 40.956955 15.4959488 40.956955 17.1013488 C 40.956955 18.7078475 41.5849572 20.216648 42.724556 21.3504485 C 43.8993569 22.519347999999997 45.4423561 23.104349 46.9852562 23.104349 C 48.5282555 23.104349 50.071254700000004 22.519348 51.2450562 21.3504485 C 52.3847542 20.216648 53.0116692 18.7078475 53.0116692 17.101348799999997 C 53.0116692 15.495948699999996 52.3847542 13.987148199999996 51.2450562 12.853348699999998 C 48.8974533 10.5154486 45.0741539 10.5154486 42.724556 12.8533487 z M 49.8349533 19.9324493 C 48.262668600000005 21.496848999999997 45.7069549 21.496848999999997 44.1347542 19.9324493 C 43.375953700000004 19.176547999999997 42.956955 18.171647999999998 42.956955 17.101348799999997 C 42.956955 16.0320491 43.375953700000004 15.027148199999996 44.1347542 14.271248699999997 C 44.920856500000006 13.489048799999997 45.9530564 13.098448599999998 46.9852562 13.098448599999998 C 48.017555200000004 13.098448599999998 49.0487557 13.489048799999997 49.8349533 14.271248699999997 C 50.5936661 15.027148099999998 51.0116692 16.0320491 51.0116692 17.101348799999997 C 51.0116692 18.171648 50.5936661 19.176548 49.8349533 19.9324493 z" stroke-linecap="round" />
</g>
		<g transform="matrix(12.5 0 0 12.5 -265.51 260.43)"  >
<path style="stroke: none; stroke-width: 1; stroke-dasharray: none; stroke-linecap: butt; stroke-dashoffset: 0; stroke-linejoin: miter; stroke-miterlimit: 4; fill: rgb(255,255,255); fill-rule: nonzero; opacity: 1;" vector-effect="non-scaling-stroke"  transform=" translate(-10.76, -52.83)" d="M 16.464756 47.1472473 C 16.0751552 46.7556496 15.442356100000001 46.7556496 15.050756400000001 47.145347599999994 L 5.0556678 57.107250199999996 C 4.664956 57.496849 4.6630563 58.12965009999999 5.0536675 58.5212479 C 5.2489562 58.7175484 5.5048561000000005 58.8152504 5.7616677 58.8152504 C 6.0165562 58.8152504 6.2724561 58.7175484 6.4677562 58.523246799999995 L 16.4628562 48.561347999999995 C 16.8534565 48.1716499 16.8554554 47.5388489 16.464756 47.1472473 z" stroke-linecap="round" />
</g>
		<g transform="matrix(12.5 0 0 12.5 -287.31 196.16)"  >
<path style="stroke: none; stroke-width: 1; stroke-dasharray: none; stroke-linecap: butt; stroke-dashoffset: 0; stroke-linejoin: miter; stroke-miterlimit: 4; fill: rgb(255,255,255); fill-rule: nonzero; opacity: 1;" vector-effect="non-scaling-stroke"  transform=" translate(-9.02, -47.69)" d="M 5.7245564 51.9734497 C 5.9794564 51.9734497 6.2352561 51.875747700000005 6.4306678 51.681449900000004 L 13.0126676 45.12094880000001 C 13.4032564 44.73124700000001 13.4042558 44.09844970000001 13.0145559 43.70684820000001 C 12.6249561 43.31525050000001 11.992156 43.31424720000001 11.6005563 43.704849300000014 L 5.018456399999999 50.26544960000001 C 4.627856199999999 50.65504840000001 4.626856299999999 51.28794870000001 5.016556199999999 51.67955020000001 C 5.2118564 51.8757477 5.4677563 51.9734497 5.7245564 51.9734497 z" stroke-linecap="round" />
</g>
		<g transform="matrix(12.5 0 0 12.5 -201.04 282.15)"  >
<path style="stroke: none; stroke-width: 1; stroke-dasharray: none; stroke-linecap: butt; stroke-dashoffset: 0; stroke-linejoin: miter; stroke-miterlimit: 4; fill: rgb(255,255,255); fill-rule: nonzero; opacity: 1;" vector-effect="non-scaling-stroke"  transform=" translate(-15.92, -54.57)" d="M 18.5018559 50.5837479 L 11.919856099999999 57.144348199999996 C 11.529255899999999 57.533947 11.528256399999998 58.16684729999999 11.9179564 58.558448799999994 C 12.1132565 58.75465009999999 12.3690558 58.852348299999996 12.6259566 58.852348299999996 C 12.880756400000001 58.852348299999996 13.136667300000001 58.75465009999999 13.331956 58.560348499999996 L 19.9140569 51.99984739999999 C 20.3046685 51.61014939999999 20.305667999999997 50.977348299999996 19.915956599999998 50.585746799999995 C 19.5263557 50.194149 18.8934555 50.1931496 18.5018559 50.5837479 z" stroke-linecap="round" />
</g>
</g>
</g>
</svg>