<?xml version="1.0" encoding="UTF-8" standalone="no" ?>
<!DOCTYPE svg PUBLIC "-//W3C//DTD SVG 1.1//EN" "http://www.w3.org/Graphics/SVG/1.1/DTD/svg11.dtd">
<svg xmlns="http://www.w3.org/2000/svg" xmlns:xlink="http://www.w3.org/1999/xlink" version="1.1" width="1080" height="1080" viewBox="0 0 1080 1080" xml:space="preserve">
<desc>Created with Fabric.js 5.2.4</desc>
<defs>
</defs>
<rect x="0" y="0" width="100%" height="100%" fill="transparent"></rect>
<g transform="matrix(1 0 0 1 540 540)" id="480de66a-351e-4ee7-98d1-90e6d8962e63"  >
<rect style="stroke: none; stroke-width: 1; stroke-dasharray: none; stroke-linecap: butt; stroke-dashoffset: 0; stroke-linejoin: miter; stroke-miterlimit: 4; fill: rgb(255,255,255); fill-rule: nonzero; opacity: 1; visibility: hidden;" vector-effect="non-scaling-stroke"  x="-540" y="-540" rx="0" ry="0" width="1080" height="1080" />
</g>
<g transform="matrix(1 0 0 1 540 540)" id="597bfbd6-6baa-4010-8a18-7f3af24fdc86"  >
</g>
<g transform="matrix(1 0 0 1 540 540)" id="932ff3aa-f45c-44cb-975b-48724d9a5541"  >
<path style="stroke: rgb(255,255,255); stroke-width: 0; stroke-dasharray: none; stroke-linecap: butt; stroke-dashoffset: 0; stroke-linejoin: miter; stroke-miterlimit: 4; fill: rgb(255,255,255); fill-rule: nonzero; opacity: 1;" vector-effect="non-scaling-stroke"  transform=" translate(-36, -28)" d="M 50.17 28.91 C 47.90336323166688 27.358465086813478 45.350345070804075 26.274027279469617 42.66 25.719999999999995 L 40 25.15 L 40 14.149999999999999 C 40.057070025612326 14.219721266834405 40.14016627168894 14.263075830004812 40.23 14.269999999999998 C 40.26003879918216 14.266810363853098 40.28990965880534 14.277370246741192 40.31126970603207 14.298730293967921 C 40.3326297532588 14.32009034119465 40.343189636146896 14.34996120081783 40.339999999999996 14.379999999999997 C 42.48954689360492 15.350989982202446 43.87078343608933 17.49131969534403 43.87 19.849999999999994 L 52.64 19.849999999999998 C 52.480000000000004 15.29 50.78 11.849999999999998 47.51 9.369999999999997 C 45.293004294044415 7.7239972531455585 42.72074431038292 6.621110815410535 39.99999999999999 6.149999999999999 L 40 0 L 32 0 L 32 5.92 C 28.69449899280738 6.168023835025566 25.548547018858216 7.44038663337834 23.00000000000001 9.559999999999993 C 20.167484843681077 12.01325321010279 18.57939166639821 15.603884204467523 18.670000000000005 19.35 Q 18.67 25.73 23.110000000000003 28.8 C 24.67 29.93 27.63 31 32 32 L 32 43.82 C 30.597893713109976 43.480379191669506 29.329911005933468 42.72794989290542 28.36 41.66 C 27.37598176927069 40.41658457811938 26.781100905219223 38.91024882294811 26.65 37.33 L 18 37.33 C 17.82839683222612 41.44171903774284 19.648838071717304 45.38414699811332 22.890000000000008 47.92000000000001 C 25.56705357216668 49.87064148632283 28.70754791228736 51.087539951814165 31.99999999999999 51.45 L 32 56 L 40 56 L 40 51.56 C 43.445154114815196 51.23782699376154 46.725238838322824 49.9327350826093 49.449999999999996 47.80000000000001 C 52.39985429172802 45.32548108390756 54.07236676401806 41.64962949645691 54 37.800000000000004 Q 54 32 50.17 28.91 Z M 32 23.22 C 31.05843067404686 22.98014769638731 30.143717455686016 22.645087909441944 29.270000000000003 22.22 C 27.90506738897854 21.584017886151784 27.051217578535514 20.195036397274414 27.1 18.689999999999998 C 27.03311775318464 17.059159942932297 27.866421947678912 15.523115344786174 29.270000000000003 14.689999999999998 C 30.128688488878293 14.194735864107383 31.045756612634275 13.808425116005044 32 13.539999999999997 Z M 41.45 43.59 C 41.009286261563496 43.76200913922093 40.54921323758422 43.87954604315724 40.080000000000005 43.940000000000005 L 40.080000000000005 33.8 C 41.22590593544036 34.1371192858867 42.33225956420862 34.596423671163215 43.38 35.169999999999995 C 44.59761874568348 35.875225195349024 45.33947410954427 37.18303207390774 45.32 38.589999999999996 Q 45.28 42.22 41.41 43.59 Z" stroke-linecap="round" />
</g>
</svg>