<?xml version="1.0" encoding="UTF-8" standalone="no" ?>
<!DOCTYPE svg PUBLIC "-//W3C//DTD SVG 1.1//EN" "http://www.w3.org/Graphics/SVG/1.1/DTD/svg11.dtd">
<svg xmlns="http://www.w3.org/2000/svg" xmlns:xlink="http://www.w3.org/1999/xlink" version="1.1" width="1080" height="1080" viewBox="0 0 1080 1080" xml:space="preserve">
<desc>Created with Fabric.js 5.2.4</desc>
<defs>
</defs>
<g transform="matrix(1 0 0 1 540 540)" id="edbbd777-e1c2-4014-8132-25a4b817e435"  >
</g>
<g transform="matrix(1 0 0 1 540 540)" id="196393aa-ddf8-4ef1-97de-e4dd156155bc"  >
<rect style="stroke: none; stroke-width: 1; stroke-dasharray: none; stroke-linecap: butt; stroke-dashoffset: 0; stroke-linejoin: miter; stroke-miterlimit: 4; fill: rgb(255,255,255); fill-rule: nonzero; opacity: 1; visibility: hidden;" vector-effect="non-scaling-stroke"  x="-540" y="-540" rx="0" ry="0" width="1080" height="1080" />
</g>
<g transform="matrix(33.33 0 0 33.33 539.89 606.67)"  >
<path style="stroke: none; stroke-width: 1; stroke-dasharray: none; stroke-linecap: butt; stroke-dashoffset: 0; stroke-linejoin: miter; stroke-miterlimit: 4; fill: rgb(0,0,0); fill-rule: nonzero; opacity: 1;" vector-effect="non-scaling-stroke"  transform=" translate(-11.7, -14.5)" d="M 11.7255 17.1019 C 11.6265 16.8844 11.4215 16.7257 11.1734 16.6975 C 10.9633 16.6735 10.7576 16.6285 10.562 16.5636 C 10.4743 16.5341 10.392 16.5019 10.3158 16.4674 L 10.4424 16.1223 C 10.5318 16.1622 10.6239 16.1987 10.7182 16.2317 L 10.7221 16.2331 L 10.7261 16.2344 C 11.0287 16.3344 11.3265 16.3851 11.611 16.3851 C 11.8967 16.3851 12.1038 16.3468 12.2629 16.2647 L 12.2724 16.2598 L 12.2817 16.2544 C 12.5227 16.1161 12.661 15.8784 12.661 15.6021 C 12.661 15.2955 12.4956 15.041 12.2071 14.9035 C 12.062 14.8329 11.8559 14.7655 11.559 14.6917 C 11.2545 14.6147 10.9987 14.533 10.8003 14.4493 C 10.6553 14.3837 10.5295 14.279 10.4161 14.1293 C 10.3185 13.9957 10.2691 13.7948 10.2691 13.5319 C 10.2691 13.2147 10.3584 12.9529 10.5422 12.7315 C 10.7058 12.5375 10.9381 12.4057 11.2499 12.3318 C 11.4812 12.277 11.6616 12.1119 11.7427 11.8987 C 11.8344 12.1148 12.0295 12.2755 12.2723 12.3142 C 12.4751 12.3465 12.6613 12.398 12.8287 12.4677 L 12.7122 12.8059 C 12.3961 12.679 12.085 12.6149 11.7841 12.6149 C 10.7848 12.6149 10.7342 13.3043 10.7342 13.4425 C 10.7342 13.7421 10.896 13.9933 11.1781 14.1318 L 11.186 14.1357 L 11.194 14.1393 C 11.3365 14.2029 11.5387 14.2642 11.8305 14.3322 C 12.1322 14.4004 12.3838 14.4785 12.5815 14.5651 L 12.5856 14.5669 L 12.5897 14.5686 C 12.7365 14.6297 12.8624 14.7317 12.9746 14.8805 L 12.9764 14.8828 L 12.9782 14.8852 C 13.0763 15.012 13.1261 15.2081 13.1261 15.4681 C 13.1261 15.7682 13.0392 16.0222 12.8604 16.2447 C 12.7053 16.4377 12.4888 16.5713 12.1983 16.6531 C 11.974 16.7163 11.8 16.8878 11.7255 17.1019 Z" stroke-linecap="round" />
</g>
<g transform="matrix(33.33 0 0 33.33 539.41 606.65)"  >
<path style="stroke: rgb(255,255,255); stroke-width: 1; stroke-dasharray: none; stroke-linecap: butt; stroke-dashoffset: 0; stroke-linejoin: miter; stroke-miterlimit: 4; fill: rgb(255,255,255); fill-rule: nonzero; opacity: 1;" vector-effect="non-scaling-stroke"  transform=" translate(-11.68, -14.5)" d="M 11.9785 18 L 11.497 18 C 11.3893 18 11.302 17.9105 11.302 17.8 L 11.302 17.3985 C 11.302 17.2929 11.2219 17.2061 11.1195 17.1944 C 10.8757 17.1667 10.6399 17.115 10.412 17.0394 C 10.1906 16.9648 9.99879 16.8764 9.83657 16.7739 C 9.76202 16.7268 9.7349 16.6312 9.76572 16.5472 L 10.096 15.6466 C 10.1405 15.5254 10.284 15.479 10.3945 15.5417 C 10.5437 15.6262 10.7041 15.6985 10.8755 15.7585 C 11.131 15.8429 11.3762 15.8851 11.611 15.8851 C 11.8129 15.8851 11.9572 15.8628 12.0437 15.8181 C 12.1302 15.7684 12.1735 15.6964 12.1735 15.6021 C 12.1735 15.4929 12.1158 15.411 12.0004 15.3564 C 11.8892 15.3018 11.7037 15.2422 11.4442 15.1777 C 11.1104 15.0933 10.8323 15.0039 10.6098 14.9096 C 10.3873 14.8103 10.1936 14.6514 10.0288 14.433 C 9.86396 14.2096 9.78156 13.9092 9.78156 13.5319 C 9.78156 13.095 9.91136 12.7202 10.1709 12.4074 C 10.4049 12.13 10.7279 11.9424 11.1401 11.8447 C 11.2329 11.8227 11.302 11.7401 11.302 11.6425 L 11.302 11.2 C 11.302 11.0895 11.3893 11 11.497 11 L 11.9785 11 C 12.0862 11 12.1735 11.0895 12.1735 11.2 L 12.1735 11.6172 C 12.1735 11.7194 12.2487 11.8045 12.3471 11.8202 C 12.7082 11.8777 13.0255 11.9866 13.2989 12.1469 C 13.3765 12.1924 13.4073 12.2892 13.3775 12.3756 L 13.0684 13.2725 C 13.0275 13.3914 12.891 13.4417 12.7812 13.3849 C 12.433 13.2049 12.1007 13.1149 11.7841 13.1149 C 11.4091 13.1149 11.2216 13.2241 11.2216 13.4425 C 11.2216 13.5468 11.2773 13.6262 11.3885 13.6809 C 11.4998 13.7305 11.6831 13.7851 11.9386 13.8447 C 12.2682 13.9192 12.5464 14.006 12.773 14.1053 C 12.9996 14.1996 13.1953 14.356 13.3602 14.5745 C 13.5291 14.7929 13.6136 15.0908 13.6136 15.4681 C 13.6136 15.8851 13.4879 16.25 13.2365 16.5628 C 13.0176 16.8354 12.7145 17.0262 12.3274 17.1353 C 12.2384 17.1604 12.1735 17.2412 12.1735 17.3358 L 12.1735 17.8 C 12.1735 17.9105 12.0862 18 11.9785 18 Z" stroke-linecap="round" />
</g>
<g transform="matrix(33.33 0 0 33.33 540 540)"  >
<path style="stroke: rgb(255,255,255); stroke-width: 20; stroke-dasharray: none; stroke-linecap: round; stroke-dashoffset: 0; stroke-linejoin: round; stroke-miterlimit: 4; fill: none; fill-rule: evenodd; opacity: 1;" vector-effect="non-scaling-stroke"  transform=" translate(-11.7, -12.5)" d="M 9.59235 5 L 13.8141 5 C 14.8954 5 14.3016 6.664 13.8638 7.679 L 13.3656 8.843 L 13.2983 9 C 13.7702 8.97651 14.2369 9.11054 14.6282 9.382 C 16.0921 10.7558 17.2802 12.4098 18.1256 14.251 C 18.455 14.9318 18.5857 15.6958 18.5019 16.451 C 18.4013 18.3759 16.8956 19.9098 15.0182 20 L 8.38823 20 C 6.51033 19.9125 5.0024 18.3802 4.89968 16.455 C 4.81587 15.6998 4.94656 14.9358 5.27603 14.255 C 6.12242 12.412 7.31216 10.7565 8.77823 9.382 C 9.1696 9.11054 9.63622 8.97651 10.1081 9 L 10.0301 8.819 L 9.54263 7.679 C 9.1068 6.664 8.5101 5 9.59235 5 Z" stroke-linecap="round" />
</g>
<g transform="matrix(33.33 0 0 33.33 540.07 406.66)"  >
<path style="stroke: rgb(255,255,255); stroke-width: 1; stroke-dasharray: none; stroke-linecap: butt; stroke-dashoffset: 0; stroke-linejoin: miter; stroke-miterlimit: 4; fill: rgb(255,255,255); fill-rule: nonzero; opacity: 1;" vector-effect="non-scaling-stroke"  transform=" translate(-11.7, -8.5)" d="M 13.2983 9.75 C 13.7125 9.75 14.0483 9.41421 14.0483 9 C 14.0483 8.58579 13.7125 8.25 13.2983 8.25 L 13.2983 9.75 Z M 10.1081 8.25 C 9.69391 8.25 9.35812 8.58579 9.35812 9 C 9.35812 9.41421 9.69391 9.75 10.1081 9.75 L 10.1081 8.25 Z M 15.9776 8.64988 C 16.3365 8.44312 16.4599 7.98455 16.2531 7.62563 C 16.0463 7.26671 15.5878 7.14336 15.2289 7.35012 L 15.9776 8.64988 Z M 13.3656 8.843 L 13.5103 9.57891 L 13.5125 9.57848 L 13.3656 8.843 Z M 10.0301 8.819 L 10.1854 8.08521 L 10.1786 8.08383 L 10.0301 8.819 Z M 8.166 7.34357 C 7.80346 7.14322 7.34715 7.27469 7.1468 7.63722 C 6.94644 7.99976 7.07791 8.45607 7.44045 8.65643 L 8.166 7.34357 Z M 13.2983 8.25 L 10.1081 8.25 L 10.1081 9.75 L 13.2983 9.75 L 13.2983 8.25 Z M 15.2289 7.35012 C 14.6019 7.71128 13.9233 7.96683 13.2187 8.10752 L 13.5125 9.57848 C 14.3778 9.40568 15.2101 9.09203 15.9776 8.64988 L 15.2289 7.35012 Z M 13.2209 8.10709 C 12.2175 8.30441 11.1861 8.29699 10.1854 8.08525 L 9.87486 9.55275 C 11.0732 9.80631 12.3086 9.81521 13.5103 9.57891 L 13.2209 8.10709 Z M 10.1786 8.08383 C 9.47587 7.94196 8.79745 7.69255 8.166 7.34357 L 7.44045 8.65643 C 8.20526 9.0791 9.02818 9.38184 9.88169 9.55417 L 10.1786 8.08383 Z" stroke-linecap="round" />
</g>
</svg>