<?xml version="1.0" encoding="UTF-8" standalone="no" ?>
<!DOCTYPE svg PUBLIC "-//W3C//DTD SVG 1.1//EN" "http://www.w3.org/Graphics/SVG/1.1/DTD/svg11.dtd">
<svg xmlns="http://www.w3.org/2000/svg" xmlns:xlink="http://www.w3.org/1999/xlink" version="1.1" width="1080" height="1080" viewBox="0 0 1080 1080" xml:space="preserve">
<desc>Created with Fabric.js 5.2.4</desc>
<defs>
</defs>
<g transform="matrix(1 0 0 1 540 540)" id="58113ba0-d241-4006-8118-cfcdea1490f5"  >
<rect style="stroke: none; stroke-width: 1; stroke-dasharray: none; stroke-linecap: butt; stroke-dashoffset: 0; stroke-linejoin: miter; stroke-miterlimit: 4; fill: rgb(255,255,255); fill-rule: nonzero; opacity: 1; visibility: hidden;" vector-effect="non-scaling-stroke"  x="-540" y="-540" rx="0" ry="0" width="1080" height="1080" />
</g>
<g transform="matrix(1 0 0 1 540 540)" id="578945de-e658-4434-9e68-69b2fc49032b"  >
</g>
<g transform="matrix(33.33 0 0 33.33 549 549)" clip-path="url(#CLIPPATH_3)"  >
<clipPath id="CLIPPATH_3" >
	<rect transform="matrix(1 0 0 1 0 0)" id="clip0_443_3628" x="-12" y="-12" rx="0" ry="0" width="24" height="24" />
</clipPath>
<rect style="stroke: rgb(255,255,255); stroke-width: 20; stroke-dasharray: none; stroke-linecap: round; stroke-dashoffset: 0; stroke-linejoin: round; stroke-miterlimit: 4; fill: none; fill-rule: nonzero; opacity: 1;" vector-effect="non-scaling-stroke"  x="-10" y="-6" rx="0" ry="0" width="20" height="12" />
</g>
<g transform="matrix(33.33 0 0 33.33 815.67 415.67)" clip-path="url(#CLIPPATH_4)"  >
<clipPath id="CLIPPATH_4" >
	<rect transform="matrix(1 0 0 1 -8 4)" id="clip0_443_3628" x="-12" y="-12" rx="0" ry="0" width="24" height="24" />
</clipPath>
<path style="stroke: rgb(255,255,255); stroke-width: 20; stroke-dasharray: none; stroke-linecap: round; stroke-dashoffset: 0; stroke-linejoin: round; stroke-miterlimit: 4; fill: none; fill-rule: nonzero; opacity: 1;" vector-effect="non-scaling-stroke"  transform=" translate(-20, -8)" d="M 22 10 C 21.4747 10 20.9546 9.89654 20.4693 9.69552 C 19.984 9.4945 19.543 9.19986 19.1716 8.82843 C 18.8001 8.45699 18.5055 8.01604 18.3045 7.53073 C 18.1035 7.04543 18 6.52529 18 6 L 22 6 L 22 10 Z" stroke-linecap="round" />
</g>
<g transform="matrix(33.33 0 0 33.33 815.67 682.33)" clip-path="url(#CLIPPATH_5)"  >
<clipPath id="CLIPPATH_5" >
	<rect transform="matrix(1 0 0 1 -8 -4)" id="clip0_443_3628" x="-12" y="-12" rx="0" ry="0" width="24" height="24" />
</clipPath>
<path style="stroke: rgb(255,255,255); stroke-width: 20; stroke-dasharray: none; stroke-linecap: round; stroke-dashoffset: 0; stroke-linejoin: round; stroke-miterlimit: 4; fill: none; fill-rule: nonzero; opacity: 1;" vector-effect="non-scaling-stroke"  transform=" translate(-20, -16)" d="M 18 18 C 18 16.9391 18.4214 15.9217 19.1716 15.1716 C 19.9217 14.4214 20.9391 14 22 14 L 22 18 L 18 18 Z" stroke-linecap="round" />
</g>
<g transform="matrix(33.33 0 0 33.33 282.33 682.33)" clip-path="url(#CLIPPATH_6)"  >
<clipPath id="CLIPPATH_6" >
	<rect transform="matrix(1 0 0 1 8 -4)" id="clip0_443_3628" x="-12" y="-12" rx="0" ry="0" width="24" height="24" />
</clipPath>
<path style="stroke: rgb(255,255,255); stroke-width: 20; stroke-dasharray: none; stroke-linecap: round; stroke-dashoffset: 0; stroke-linejoin: round; stroke-miterlimit: 4; fill: none; fill-rule: nonzero; opacity: 1;" vector-effect="non-scaling-stroke"  transform=" translate(-4, -16)" d="M 2 14 C 3.06087 14 4.07828 14.4214 4.82843 15.1716 C 5.57857 15.9217 6 16.9391 6 18 L 2 18 L 2 14 Z" stroke-linecap="round" />
</g>
<g transform="matrix(33.33 0 0 33.33 282.33 415.67)" clip-path="url(#CLIPPATH_7)"  >
<clipPath id="CLIPPATH_7" >
	<rect transform="matrix(1 0 0 1 8 4)" id="clip0_443_3628" x="-12" y="-12" rx="0" ry="0" width="24" height="24" />
</clipPath>
<path style="stroke: rgb(255,255,255); stroke-width: 20; stroke-dasharray: none; stroke-linecap: round; stroke-dashoffset: 0; stroke-linejoin: round; stroke-miterlimit: 4; fill: none; fill-rule: nonzero; opacity: 1;" vector-effect="non-scaling-stroke"  transform=" translate(-4, -8)" d="M 6 6 C 6 7.06087 5.57857 8.07828 4.82843 8.82843 C 4.07828 9.57857 3.06087 10 2 10 L 2 6 L 6 6 Z" stroke-linecap="round" />
</g>
<g transform="matrix(33.33 0 0 33.33 556.41 549)" clip-path="url(#CLIPPATH_8)"  >
<clipPath id="CLIPPATH_8" >
	<rect transform="matrix(1 0 0 1 -0.22 0)" id="clip0_443_3628" x="-12" y="-12" rx="0" ry="0" width="24" height="24" />
</clipPath>
<path style="stroke: rgb(255,255,255); stroke-width: 20; stroke-dasharray: none; stroke-linecap: round; stroke-dashoffset: 0; stroke-linejoin: round; stroke-miterlimit: 4; fill: none; fill-rule: nonzero; opacity: 1;" vector-effect="non-scaling-stroke"  transform=" translate(-12.22, -12)" d="M 14.0741 9.5 L 11.3333 9.5 C 10.597 9.5 10 10.0596 10 10.75 C 10 11.4404 10.597 12 11.3333 12 L 13.1111 12 C 13.8475 12 14.4444 12.5596 14.4444 13.25 C 14.4444 13.9404 13.8475 14.5 13.1111 14.5 L 10 14.5" stroke-linecap="round" />
</g>
<g transform="matrix(33.33 0 0 33.33 549 449.29)" clip-path="url(#CLIPPATH_9)"  >
<clipPath id="CLIPPATH_9" >
	<rect transform="matrix(1 0 0 1 0 2.99)" id="clip0_443_3628" x="-12" y="-12" rx="0" ry="0" width="24" height="24" />
</clipPath>
<path style="stroke: rgb(255,255,255); stroke-width: 20; stroke-dasharray: none; stroke-linecap: round; stroke-dashoffset: 0; stroke-linejoin: round; stroke-miterlimit: 4; fill: none; fill-rule: nonzero; opacity: 1;" vector-effect="non-scaling-stroke"  transform=" translate(-12, -9.01)" d="M 12 9.51733 L 12 8.5" stroke-linecap="round" />
</g>
<g transform="matrix(33.33 0 0 33.33 549 649.29)" clip-path="url(#CLIPPATH_10)"  >
<clipPath id="CLIPPATH_10" >
	<rect transform="matrix(1 0 0 1 0 -3.01)" id="clip0_443_3628" x="-12" y="-12" rx="0" ry="0" width="24" height="24" />
</clipPath>
<path style="stroke: rgb(255,255,255); stroke-width: 20; stroke-dasharray: none; stroke-linecap: round; stroke-dashoffset: 0; stroke-linejoin: round; stroke-miterlimit: 4; fill: none; fill-rule: nonzero; opacity: 1;" vector-effect="non-scaling-stroke"  transform=" translate(-12, -15.01)" d="M 12 15.5173 L 12 14.5" stroke-linecap="round" />
</g>
</svg>