<svg width="26" height="26" viewBox="0 0 26 26" fill="none" xmlns="http://www.w3.org/2000/svg">
<path d="M9.92376 11.7758C9.81543 11.765 9.68543 11.765 9.56626 11.7758C6.98793 11.6891 4.94043 9.57663 4.94043 6.97663C4.94043 4.32246 7.08543 2.16663 9.75043 2.16663C12.4046 2.16663 14.5604 4.32246 14.5604 6.97663C14.5496 9.57663 12.5021 11.6891 9.92376 11.7758Z" stroke="white" stroke-width="2" stroke-linecap="round" stroke-linejoin="round"/>
<path d="M17.7776 4.33337C19.8792 4.33337 21.5692 6.03421 21.5692 8.12504C21.5692 10.1725 19.9442 11.8409 17.9184 11.9167C17.8317 11.9059 17.7342 11.9059 17.6367 11.9167" stroke="white" stroke-width="2" stroke-linecap="round" stroke-linejoin="round"/>
<path d="M4.50629 15.7734C1.88462 17.5284 1.88462 20.3884 4.50629 22.1325C7.48546 24.1259 12.3713 24.1259 15.3505 22.1325C17.9721 20.3775 17.9721 17.5175 15.3505 15.7734C12.3821 13.7909 7.49629 13.7909 4.50629 15.7734Z" stroke="white" stroke-width="2" stroke-linecap="round" stroke-linejoin="round"/>
<path d="M19.8682 21.6666C20.6482 21.5041 21.3848 21.19 21.9915 20.7241C23.6815 19.4566 23.6815 17.3658 21.9915 16.0983C21.3957 15.6433 20.6698 15.34 19.9007 15.1666" stroke="white" stroke-width="2" stroke-linecap="round" stroke-linejoin="round"/>
</svg>
