<?xml version="1.0" encoding="UTF-8" standalone="no" ?>
<!DOCTYPE svg PUBLIC "-//W3C//DTD SVG 1.1//EN" "http://www.w3.org/Graphics/SVG/1.1/DTD/svg11.dtd">
<svg xmlns="http://www.w3.org/2000/svg" xmlns:xlink="http://www.w3.org/1999/xlink" version="1.1" width="1080" height="1080" viewBox="0 0 1080 1080" xml:space="preserve">
<desc>Created with Fabric.js 5.2.4</desc>
<defs>
</defs>
<g transform="matrix(1 0 0 1 540 540)" id="3e63115b-79e5-4736-8a3c-5f9ff9ab5504"  >
<rect style="stroke: none; stroke-width: 1; stroke-dasharray: none; stroke-linecap: butt; stroke-dashoffset: 0; stroke-linejoin: miter; stroke-miterlimit: 4; fill: rgb(255,255,255); fill-rule: nonzero; opacity: 1; visibility: hidden;" vector-effect="non-scaling-stroke"  x="-540" y="-540" rx="0" ry="0" width="1080" height="1080" />
</g>
<g transform="matrix(1 0 0 1 540 540)" id="8c105204-1dda-4aff-9ccc-b323edcb4665"  >
</g>
<g transform="matrix(1 0 0 1 540 540)"  >
<g style="" vector-effect="non-scaling-stroke"   >
		<g transform="matrix(12.5 0 0 12.5 0 0)"  >
<path style="stroke: none; stroke-width: 1; stroke-dasharray: none; stroke-linecap: butt; stroke-dashoffset: 0; stroke-linejoin: miter; stroke-miterlimit: 4; fill: rgb(255,255,255); fill-rule: nonzero; opacity: 1;" vector-effect="non-scaling-stroke"  transform=" translate(-32, -32)" d="M 60.45 30.89 C 60.52028009541758 29.539576404192243 60.032099414591464 28.21968048936606 59.1 27.240000000000002 C 58.19447809905619 26.274717413693317 56.93347978375938 25.7219015333483 55.61 25.71 L 41.6 25.71 C 41.46766142348309 25.70579325233413 41.3451851572983 25.63898801623334 41.27 25.53 C 41.14899418242767 25.361818452802083 41.11904121289702 25.14465942370486 41.190000000000005 24.950000000000003 L 44.9 13.39 C 45.62 11.15 46.82 7.41 43.54 4.73 C 42.03 3.5000000000000004 39.48 2.9300000000000006 37.72 4.3100000000000005 C 36.23 5.49 35.87 7.2700000000000005 35.55 8.850000000000001 C 35.44083282808671 9.477769805256225 35.28370589936405 10.096248141717759 35.08 10.700000000000001 C 34.12 13.31 31.75 15.040000000000001 29.47 16.71 C 29.08 16.990000000000002 28.7 17.27 28.32 17.560000000000002 C 24.76969046865936 20.330890307210947 21.02320796808584 22.840799636319524 17.109999999999992 25.070000000000007 L 17.11 22.51 C 17.106705198887923 21.40679813376243 16.213201866237572 20.513294801112075 15.11 20.51 L 5.55 20.51 C 4.4454305003384125 20.51 3.55 21.405430500338415 3.55 22.51 L 3.55 58.5 C 3.55 59.60456949966159 4.4454305003384125 60.5 5.55 60.5 L 15.11 60.5 C 16.213201866237572 60.49670519888792 17.106705198887926 59.603201866237576 17.11 58.5 L 17.11 55.99 L 24.33 57.72 C 27.33610555672958 58.44058479243868 30.409700140425286 58.84280000513604 33.499999999999986 58.92 C 35.17 58.97 36.89 58.99 38.64 58.99 C 41.36 58.99 44.16 58.940000000000005 47.01 58.830000000000005 C 48.31066843822117 58.84268663707371 49.55892032198179 58.31805903375403 50.46 57.38 C 51.5579390398427 56.17074762311242 52.01138313173013 54.5093582044757 51.68 52.910000000000004 C 51.533346051767936 52.207559945037275 51.22902055909763 51.54761814632524 50.79 50.980000000000004 C 51.77183812621084 50.813939524576476 52.67157972197542 50.328922570609635 53.35 49.6 C 54.4479390398427 48.39074762311242 54.90138313173013 46.7293582044757 54.57 45.13 C 54.42537296681232 44.42689226734104 54.12084439713167 43.766510088145935 53.68 43.2 C 54.66183812621084 43.033939524576475 55.56157972197542 42.54892257060963 56.24 41.82 C 57.3379390398427 40.61074762311242 57.79138313173013 38.9493582044757 57.46 37.35 C 57.315507896619735 36.641202085941174 56.99964225336898 35.97857089955643 56.54 35.42 C 57.533486225161134 35.26294243509759 58.44551581111699 34.7769961692215 59.129999999999995 34.04 C 59.91944661819774 33.17322860455689 60.385677233153686 32.060632818866566 60.45 30.889999999999997 Z M 15.11 58.5 L 5.55 58.5 L 5.55 22.51 L 15.11 22.51 Z M 57.67 32.68 C 57.19938971188266 33.193024977683386 56.53617309180588 33.48657987509442 55.84 33.49 L 52.95 33.49 C 52.93 33.49 52.92 33.5 52.900000000000006 33.5 C 52.86000000000001 33.5 52.82000000000001 33.49 52.78000000000001 33.49 L 49.34 33.49 C 48.78771525016921 33.49 48.34 33.937715250169205 48.34 34.49 C 48.34 35.0422847498308 48.78771525016921 35.49 49.34 35.49 L 52.78 35.49 C 54.076725422327684 35.57566855535203 55.17276809608262 36.48232150239196 55.5 37.74 C 55.708980170844896 38.70964164804034 55.44133740683828 39.72073653428756 54.78 40.46 C 54.30938971188266 40.97302497768339 53.64617309180588 41.26657987509442 52.95 41.27 L 46.45 41.27 C 45.897715250169206 41.27 45.45 41.717715250169206 45.45 42.27 C 45.45 42.8222847498308 45.897715250169206 43.27 46.45 43.27 L 50.06 43.27 C 51.31692533678411 43.366765283090636 52.35748343204201 44.28490477890644 52.61 45.52 C 52.818980170844895 46.48964164804034 52.55133740683828 47.50073653428756 51.89 48.24 C 51.422935492048865 48.75917606936982 50.75834366372167 49.05697131484977 50.06 49.06 L 43.56 49.06 C 43.007715250169205 49.06 42.56 49.507715250169205 42.56 50.06 C 42.56 50.6122847498308 43.007715250169205 51.06 43.56 51.06 L 47.17 51.06 C 48.4253148231019 51.15232485117698 49.46663969230564 52.06705728530105 49.72 53.300000000000004 C 49.928980170844895 54.26964164804034 49.66133740683828 55.28073653428756 49 56.02 C 48.45373350214504 56.56148081943349 47.708773772204026 56.85440187829379 46.94 56.830000000000005 C 42.29 57.010000000000005 37.78 57.040000000000006 33.55 56.93000000000001 C 30.598212428518583 56.849059703360254 27.662660167982434 56.463684691988504 24.789999999999996 55.780000000000015 L 17.11 53.940000000000005 L 17.11 27.33 C 21.469940100340853 24.95290955328197 25.624302322473394 22.21678370971962 29.529999999999987 19.14999999999999 C 29.89 18.88 30.27 18.599999999999998 30.650000000000002 18.33 C 33.06 16.56 35.79 14.569999999999999 36.96 11.389999999999997 C 37.202908997192296 10.68990697173292 37.38688261035921 9.970737392989552 37.51 9.239999999999998 C 37.78 7.889999999999997 38.04 6.609999999999997 38.96 5.879999999999997 C 39.86 5.169999999999997 41.36 5.529999999999998 42.28 6.279999999999998 C 44.14 7.809999999999998 43.97 9.739999999999998 42.99 12.779999999999998 L 39.28 24.34 C 39.01861002475852 25.145175576500986 39.15998457155459 26.026906302571177 39.660000000000004 26.71 C 40.108155983168636 27.33599615715199 40.83012239381255 27.70814379150452 41.6 27.71 L 55.61 27.71 C 56.385882012000174 27.721367401890255 57.123193262773164 28.050266048068405 57.65 28.62 C 58.20343100625392 29.198679467180828 58.49296886689513 29.980431690912116 58.449999999999996 30.78 C 58.416172066017644 31.484173356272493 58.14070735381904 32.15517714239731 57.67 32.68 Z" stroke-linecap="round" />
</g>
		<g transform="matrix(12.5 0 0 12.5 -270.97 274.96)"  >
<circle style="stroke: none; stroke-width: 1; stroke-dasharray: none; stroke-linecap: butt; stroke-dashoffset: 0; stroke-linejoin: miter; stroke-miterlimit: 4; fill: rgb(255,255,255); fill-rule: nonzero; opacity: 1;" vector-effect="non-scaling-stroke"  cx="0" cy="0" r="2" />
</g>
</g>
</g>
</svg>